<svg
              width="207"
              height="92"
              viewBox="0 0 207 92"
              fill="none"
              xmlns="http://www.w3.org/2000/svg"
            >
              <path
                d="M96.25 40.8466H105.917V42.9218H94.1637V27.5654H91.0342L92.286 25.4902H94.1637V17.397H105.917V19.4722H96.25V25.4902H102.405V27.5654H96.25V40.8466Z"
                fill="white"
              />
              <path
                d="M110.472 42.8872V27.5654L112.245 28.9834C113.428 27.7729 114.888 27.1504 116.627 27.1504C118.365 27.1504 119.826 27.7383 121.008 28.9143C122.19 30.0902 122.781 31.5428 122.781 33.2722V42.8872H120.695V33.2722C120.695 32.0962 120.313 31.1278 119.513 30.3669C118.713 29.606 117.774 29.2255 116.627 29.2255C115.479 29.2255 114.54 29.606 113.741 30.4015C112.941 31.197 112.558 32.1308 112.558 33.2722V42.8872H110.472Z"
                fill="white"
              />
              <path
                d="M134.743 27.1504C137.142 27.1504 139.159 28.0496 140.793 29.8481V17.397H142.88V42.8872L140.62 40.812C138.985 42.4722 137.038 43.3368 134.743 43.3368C132.518 43.3368 130.64 42.5413 129.006 40.9504C127.406 39.3594 126.606 37.4571 126.606 35.2436C126.606 32.9955 127.406 31.0932 129.006 29.5022C130.64 27.9458 132.518 27.1504 134.743 27.1504ZM134.743 29.2255C133.039 29.2255 131.614 29.8135 130.431 30.9549C129.249 32.1308 128.693 33.5489 128.693 35.2436C128.693 36.9383 129.284 38.3564 130.431 39.5323C131.614 40.7083 133.039 41.2616 134.743 41.2616C136.412 41.2616 137.873 40.6737 139.055 39.4977C140.237 38.3218 140.828 36.9037 140.828 35.209C140.828 33.5489 140.237 32.0962 139.055 30.9203C137.873 29.8135 136.412 29.2255 134.743 29.2255Z"
                fill="white"
              />
              <path
                d="M148.409 42.8872V17.397H150.495V42.8872H148.409Z"
                fill="white"
              />
              <path
                d="M168.264 38.0451L170.072 39.0481C169.376 40.3278 168.403 41.3654 167.116 42.1263C165.83 42.9218 164.439 43.3022 162.909 43.3022C160.683 43.3022 158.806 42.5068 157.171 40.9158C155.572 39.3248 154.772 37.4226 154.772 35.209C154.772 32.9609 155.572 31.0586 157.171 29.4677C158.771 27.8767 160.683 27.1158 162.909 27.1158C164.3 27.1158 165.656 27.4616 166.873 28.1534C168.125 28.8451 169.063 29.7444 169.759 30.8165L159.258 40.0857C160.301 40.8812 161.518 41.2962 162.909 41.2962C164.056 41.2962 165.099 41.0195 166.038 40.4316C166.977 39.8436 167.742 39.0481 168.264 38.0451ZM157.867 38.6331L166.873 30.6782C165.725 29.7098 164.439 29.2256 162.909 29.2256C161.205 29.2256 159.779 29.8135 158.597 30.9549C157.415 32.1308 156.858 33.5489 156.858 35.2436C156.824 36.4541 157.171 37.5955 157.867 38.6331Z"
                fill="white"
              />
              <path
                d="M176.505 39.6361C176.992 40.6391 177.826 41.1233 179.008 41.1233C179.773 41.1233 180.434 40.8466 180.956 40.3278C181.477 39.809 181.755 39.1519 181.755 38.391C181.755 37.7684 181.581 37.215 181.199 36.7308C180.851 36.2466 180.364 35.9353 179.808 35.7624L178 35.2436C177.096 34.9669 176.366 34.4827 175.809 33.7564C175.253 33.03 174.975 32.2346 174.975 31.3353C174.975 30.194 175.357 29.2601 176.157 28.4646C176.957 27.6691 177.896 27.2887 179.043 27.2887C179.843 27.2887 180.608 27.5308 181.269 27.9804C181.964 28.43 182.451 29.018 182.764 29.7789L180.886 30.5744C180.573 29.7789 179.982 29.3639 179.043 29.3639C178.452 29.3639 178 29.5714 177.617 29.9519C177.235 30.3669 177.061 30.8165 177.061 31.3353C177.061 32.3383 177.548 32.9609 178.522 33.2376L180.33 33.7564C181.373 34.0331 182.207 34.5864 182.833 35.4511C183.459 36.3158 183.807 37.2842 183.807 38.391C183.807 39.2902 183.598 40.0857 183.181 40.812C182.764 41.5383 182.173 42.1263 181.442 42.5413C180.712 42.9564 179.912 43.1639 179.008 43.1639C178.104 43.1639 177.27 42.9218 176.505 42.4722C175.74 42.0225 175.149 41.3654 174.697 40.5699L176.505 39.6361Z"
                fill="white"
              />
              <path
                d="M189.614 39.6361C190.101 40.6391 190.935 41.1233 192.117 41.1233C192.882 41.1233 193.543 40.8466 194.065 40.3278C194.586 39.809 194.864 39.1519 194.864 38.391C194.864 37.7684 194.691 37.215 194.308 36.7308C193.96 36.2466 193.474 35.9353 192.917 35.7624L191.109 35.2436C190.205 34.9669 189.475 34.4827 188.918 33.7564C188.362 33.03 188.084 32.2346 188.084 31.3353C188.084 30.194 188.466 29.2601 189.266 28.4646C190.066 27.6691 191.005 27.2887 192.152 27.2887C192.952 27.2887 193.717 27.5308 194.378 27.9804C195.073 28.43 195.56 29.018 195.873 29.7789L193.995 30.5744C193.682 29.7789 193.091 29.3639 192.152 29.3639C191.561 29.3639 191.109 29.5714 190.727 29.9519C190.344 30.3669 190.17 30.8165 190.17 31.3353C190.17 32.3383 190.657 32.9609 191.631 33.2376L193.439 33.7564C194.482 34.0331 195.317 34.5864 195.942 35.4511C196.568 36.3158 196.916 37.2842 196.916 38.391C196.916 39.2902 196.707 40.0857 196.29 40.812C195.873 41.5383 195.282 42.1263 194.552 42.5413C193.821 42.9564 193.022 43.1639 192.117 43.1639C191.213 43.1639 190.379 42.9218 189.614 42.4722C188.849 42.0225 188.258 41.3654 187.806 40.5699L189.614 39.6361Z"
                fill="white"
              />
              <path
                d="M96.0762 70.3834H105.743V72.4586H93.9899V57.1368H90.8604L92.1122 55.0616H93.9899V46.9684H105.743V49.0436H96.0762V55.0616H102.231V57.1368H96.0762V70.3834Z"
                fill="white"
              />
              <path
                d="M109.672 69.1729C110.159 70.1759 110.994 70.6601 112.176 70.6601C112.941 70.6601 113.601 70.3835 114.123 69.8647C114.645 69.3459 114.923 68.6887 114.923 67.9278C114.923 67.3053 114.749 66.7519 114.366 66.2677C114.019 65.7835 113.532 65.4722 112.976 65.2992L111.167 64.7804C110.263 64.5038 109.533 64.0195 108.977 63.2932C108.42 62.5669 108.142 61.7714 108.142 60.8722C108.142 59.7308 108.525 58.797 109.324 58.0015C110.124 57.206 111.063 56.8256 112.211 56.8256C113.01 56.8256 113.775 57.0677 114.436 57.5173C115.131 57.9669 115.618 58.5549 115.931 59.3158L114.053 60.1113C113.741 59.3158 113.149 58.9007 112.211 58.9007C111.619 58.9007 111.167 59.1083 110.785 59.4887C110.402 59.9038 110.229 60.3534 110.229 60.8722C110.229 61.8752 110.715 62.4977 111.689 62.7744L113.497 63.2932C114.54 63.5699 115.375 64.1233 116.001 64.988C116.627 65.8526 116.974 66.821 116.974 67.9278C116.974 68.8271 116.766 69.6226 116.348 70.3489C115.931 71.0752 115.34 71.6632 114.61 72.0782C113.88 72.4932 113.08 72.7007 112.176 72.7007C111.272 72.7007 110.437 72.4586 109.672 72.009C108.907 71.5594 108.316 70.9023 107.864 70.1068L109.672 69.1729Z"
                fill="white"
              />
              <path
                d="M132.865 59.6271L131.231 60.9068C130.014 59.4887 128.449 58.7624 126.606 58.7624C124.902 58.7624 123.477 59.3504 122.295 60.4917C121.112 61.6677 120.556 63.0857 120.556 64.7804C120.556 66.4752 121.147 67.8932 122.295 69.0692C123.477 70.2451 124.902 70.7985 126.606 70.7985C128.449 70.7985 129.944 70.1068 131.127 68.7579L132.796 70.0376C132.031 70.9368 131.092 71.6286 130.049 72.1128C129.006 72.597 127.858 72.8391 126.606 72.8391C124.381 72.8391 122.503 72.0436 120.869 70.4526C119.269 68.8616 118.47 66.9594 118.47 64.7458C118.47 62.4977 119.269 60.5955 120.869 59.0045C122.468 57.4135 124.381 56.6526 126.606 56.6526C127.893 56.6526 129.04 56.8947 130.118 57.4135C131.196 57.9669 132.1 58.6932 132.865 59.6271Z"
                fill="white"
              />
              <path
                d="M148.409 70.3835C146.774 72.0436 144.827 72.9083 142.532 72.9083C140.307 72.9083 138.429 72.1128 136.795 70.5218C135.195 68.9308 134.395 67.0286 134.395 64.815C134.395 62.5669 135.195 60.6647 136.795 59.0737C138.394 57.4827 140.307 56.7218 142.532 56.7218C144.827 56.7218 146.774 57.5519 148.409 59.2466L150.669 57.1368V72.4586L148.409 70.3835ZM142.532 58.7624C140.828 58.7624 139.403 59.3504 138.22 60.4917C137.038 61.6677 136.482 63.0857 136.482 64.7804C136.482 66.4752 137.073 67.8932 138.22 69.0692C139.403 70.2451 140.828 70.7985 142.532 70.7985C144.201 70.7985 145.662 70.2105 146.844 69.0346C148.026 67.8586 148.617 66.4406 148.617 64.7459C148.617 63.0857 148.026 61.6331 146.844 60.4571C145.662 59.3504 144.236 58.7624 142.532 58.7624Z"
                fill="white"
              />
              <path
                d="M161.483 72.9083C159.084 72.9083 157.067 72.009 155.433 70.2105V82.6617H153.346V57.1368L155.607 59.2466C157.241 57.5865 159.188 56.7218 161.483 56.7218C163.743 56.7218 165.656 57.5173 167.255 59.0737C168.855 60.6647 169.62 62.5669 169.62 64.815C169.62 67.0286 168.82 68.8962 167.255 70.5218C165.656 72.0782 163.743 72.9083 161.483 72.9083ZM161.483 70.8331C163.187 70.8331 164.613 70.2451 165.795 69.1038C166.977 67.9278 167.533 66.5098 167.533 64.815C167.533 63.1203 166.942 61.7023 165.795 60.5263C164.613 59.3504 163.187 58.797 161.483 58.797C159.814 58.797 158.354 59.385 157.171 60.5609C155.989 61.7368 155.398 63.1549 155.398 64.8496C155.398 66.5098 155.989 67.9624 157.171 69.1383C158.354 70.2451 159.779 70.8331 161.483 70.8331Z"
                fill="white"
              />
              <path
                d="M184.607 67.6165L186.415 68.6195C185.719 69.8992 184.746 70.9368 183.459 71.6977C182.173 72.4932 180.782 72.8737 179.252 72.8737C177.026 72.8737 175.149 72.0782 173.514 70.4872C171.915 68.8962 171.115 66.994 171.115 64.7804C171.115 62.5323 171.915 60.6301 173.514 59.0391C175.114 57.4481 177.026 56.6872 179.252 56.6872C180.643 56.6872 181.999 57.0331 183.216 57.7248C184.468 58.4165 185.406 59.3158 186.102 60.388L175.601 69.6225C176.644 70.418 177.861 70.8331 179.252 70.8331C180.399 70.8331 181.442 70.5564 182.381 69.9684C183.355 69.3804 184.085 68.6195 184.607 67.6165ZM174.21 68.1699L183.216 60.215C182.068 59.2466 180.782 58.7624 179.252 58.7624C177.548 58.7624 176.122 59.3504 174.94 60.4917C173.758 61.6676 173.201 63.0857 173.201 64.7804C173.201 66.0255 173.549 67.1323 174.21 68.1699Z"
                fill="white"
              />
              <path
                d="M189.788 69.1729C190.275 70.1759 191.109 70.6601 192.291 70.6601C193.056 70.6601 193.717 70.3835 194.239 69.8647C194.76 69.3459 195.038 68.6887 195.038 67.9278C195.038 67.3053 194.865 66.7519 194.482 66.2677C194.134 65.7835 193.648 65.4722 193.091 65.2992L191.283 64.7804C190.379 64.5038 189.649 64.0195 189.092 63.2932C188.536 62.5669 188.258 61.7714 188.258 60.8722C188.258 59.7308 188.64 58.797 189.44 58.0015C190.24 57.206 191.179 56.8256 192.326 56.8256C193.126 56.8256 193.891 57.0677 194.552 57.5173C195.247 57.9669 195.734 58.5549 196.047 59.3158L194.169 60.1113C193.856 59.3158 193.265 58.9007 192.326 58.9007C191.735 58.9007 191.283 59.1083 190.901 59.4887C190.518 59.9038 190.344 60.3534 190.344 60.8722C190.344 61.8752 190.831 62.4977 191.805 62.7744L193.613 63.2932C194.656 63.5699 195.49 64.1233 196.116 64.988C196.742 65.8526 197.09 66.821 197.09 67.9278C197.09 68.8271 196.881 69.6226 196.464 70.3489C196.047 71.0752 195.456 71.6632 194.725 72.0782C193.995 72.4932 193.195 72.7007 192.291 72.7007C191.387 72.7007 190.553 72.4586 189.788 72.009C189.023 71.5594 188.432 70.9023 187.98 70.1068L189.788 69.1729Z"
                fill="white"
              />
              <path
                d="M32.86 45.0316C32.9296 43.1293 34.4248 41.6767 36.3373 41.7113C38.2845 41.7113 39.8493 43.3368 39.7797 45.2737C39.7102 47.2105 38.0759 48.6977 36.1286 48.594C34.2161 48.4556 32.8252 46.9338 32.86 45.0316Z"
                fill="white"
              />
              <path
                d="M55.7054 82.2812C38.2844 82.2812 24.1321 68.2391 24.1321 50.8767C24.1321 33.5143 38.2497 19.4722 55.7054 19.4722C73.1611 19.4722 87.2787 33.5489 87.2787 50.8767C87.2787 53.7128 87.2787 56.618 86.166 59.1083C85.3662 60.9413 83.5929 60.5955 83.5929 60.5955H40.4751C43.396 59.0737 46.8384 55.788 46.8384 55.788H81.8542C82.1672 54.197 82.3063 52.5714 82.3063 50.8767C82.3063 36.2812 70.4141 24.4526 55.7402 24.4526C41.0662 24.4526 29.1741 36.2812 29.1741 50.8767C29.1741 65.4722 41.0662 77.3007 55.7402 77.3007V82.2812H55.7054Z"
                fill="white"
              />
              <path
                d="M11.6392 58.6174L11.6376 58.6163C10.608 57.9661 10.417 57.4652 10.3894 57.23C10.3646 57.0182 10.4557 56.891 10.4525 56.8886C10.452 56.8883 10.4498 56.8903 10.4452 56.8948L10.4718 56.8684L10.4994 56.8272L11.8903 54.7521L11.8981 54.7403L11.9053 54.7282C12.0104 54.5505 12.1189 54.4979 12.2149 54.4785C12.3339 54.4545 12.4929 54.4726 12.6833 54.5392C12.869 54.6042 13.0462 54.7019 13.1817 54.7883C13.2481 54.8306 13.3014 54.8682 13.3372 54.8945C13.355 54.9076 13.3682 54.9177 13.3764 54.9241L13.3847 54.9306L13.3848 54.9307L13.385 54.9309L13.3852 54.931L13.3855 54.9313L13.3858 54.9315L13.4052 54.9473L13.4273 54.9617C17.6452 57.7116 22.7123 59.297 28.1309 59.297C43.0785 59.297 55.197 47.2471 55.197 32.3729C55.197 26.1354 53.0708 20.3903 49.4927 15.8095L49.4823 15.7962L49.471 15.7836L48.0512 14.1992C47.6385 13.7034 47.6512 13.3286 47.7126 13.0994C47.7472 12.9703 47.8044 12.8646 47.8536 12.7911C47.8759 12.7579 47.8956 12.7327 47.9089 12.7167L49.3673 11.6035L49.3673 11.6035L49.3722 11.5997C49.7016 11.3417 49.9832 11.2678 50.2129 11.2688C50.451 11.2699 50.681 11.3522 50.8953 11.4822C51.1102 11.6125 51.2909 11.7799 51.4204 11.92C51.4842 11.9889 51.5332 12.0487 51.5652 12.0898C51.5812 12.1102 51.5928 12.1259 51.5998 12.1356L51.6065 12.1449L51.6067 12.1453L51.6069 12.1456L51.6073 12.146L51.6075 12.1464L51.6228 12.1688L51.6418 12.1907C56.365 17.6376 59.2043 24.6819 59.2043 32.4075C59.2043 49.4909 45.2786 63.312 28.1309 63.312C22.0686 63.312 16.39 61.6429 11.6392 58.6174Z"
                fill="white"
                stroke="white"
              />
            </svg>